<mxfile host="app.diagrams.net" modified="2024-05-20T03:30:02.639Z" agent="Mozilla/5.0 (Macintosh; Intel Mac OS X 10_15_7) AppleWebKit/537.36 (KHTML, like Gecko) Chrome/124.0.0.0 Safari/537.36" version="24.4.2" etag="kU6F7cQWtlyf85YCAEi9" type="github">
  <diagram name="第 1 页" id="KB3aRlgGFEXAsh1E03ZT">
    <mxGraphModel>
      <root>
        <mxCell id="0" />
        <mxCell id="1" parent="0" />
      </root>
    </mxGraphModel>
  </diagram>
</mxfile>
